#!OML:ASF E:\Steps\Project 1\Capture day 1\Session 2\Subject.ASF
:FULLY-SPECIFIED
:DEGREES
358
root 3.83048 17.1071 16.2009 -153.458 -2.45394 175.966
lowerback -30.6272 -2.87028 -8.45663
upperback -1.2026 -1.45018 -0.621556
thorax 14.8323 -1.49199 3.22743
lowerneck -0.0600884 -1.99109 0.0116033
upperneck 4.55987 -2.85204 2.18249
head 1.45035 -1.43104 0.634933
rclavicle 1.72943e-014 1.15295e-014
rhumerus -35.262 -17.1474 -78.5537
rradius 32.8937
rwrist -5.63491
rhand -2.75397 -55.0323
rfingers 7.12502
rthumb 22.9501 -83.6863
lclavicle 1.72943e-014 1.15295e-014
lhumerus -30.7372 5.47102 80.9063
lradius 21.9258
lwrist -4.72118
lhand -20.7649 -12.2565
lfingers 7.12502
lthumb 5.60132 17.6495
rfemur -21.5316 3.68521 18.7835
rtibia 5.39952
rfoot -18.4219 -4.02584
rtoes -15.0848
lfemur -23.0418 -7.72744 -23.8703
ltibia 6.49096
lfoot -5.93438 -4.2213
ltoes -23.356
359
root 3.82615 17.107 16.1945 -153.535 -2.43238 175.917
lowerback -30.6149 -2.90666 -8.59544
upperback -1.24416 -1.4668 -0.563454
thorax 14.7823 -1.50979 3.35872
lowerneck -0.010315 -1.96013 -0.158214
upperneck 4.29771 -2.79679 2.26706
head 1.36244 -1.40361 0.691727
rclavicle -2.33572e-015 7.55382e-015
rhumerus -35.3034 -16.9177 -78.5148
rradius 32.9654
rwrist -5.78218
rhand -2.74654 -54.6016
rfingers 7.12502
rthumb 22.9572 -83.2546
lclavicle -2.33572e-015 7.55382e-015
lhumerus -30.8687 5.4828 81.0444
lradius 21.9093
lwrist -4.62771
lhand -20.8634 -12.1997
lfingers 7.12502
lthumb 5.50621 17.7087
rfemur -21.4472 3.77164 18.7023
rtibia 5.51532
rfoot -18.5062 -4.08749
rtoes -14.2129
lfemur -22.8687 -7.76409 -23.9626
ltibia 6.40797
lfoot -5.90819 -4.19894
ltoes -22.9943
360
root 3.82239 17.1037 16.1897 -153.496 -2.29764 175.927
lowerback -30.9493 -2.86977 -8.61078
upperback -1.16399 -1.3724 -0.582571
thorax 15.0133 -1.47834 3.37368
lowerneck -0.116818 -1.98838 -0.0985443
upperneck 4.17736 -2.82465 2.21939
head 1.34116 -1.41479 0.665993
rclavicle -3.37934e-015 -1.74931e-014
rhumerus -35.0933 -16.9256 -78.6161
rradius 32.9909
rwrist -5.83217
rhand -2.92707 -54.7184
rfingers 7.12502
rthumb 22.784 -83.3929
lclavicle -3.37934e-015 -1.74931e-014
lhumerus -30.7128 5.50877 81.0985
lradius 21.8216
lwrist -4.59413
lhand -20.7915 -12.1186
lfingers 7.12502
lthumb 5.57563 17.7881
rfemur -21.5473 3.83505 18.6736
rtibia 5.60269
rfoot -18.53 -4.04598
rtoes -14.3965
lfemur -22.8491 -7.75307 -23.9924
ltibia 6.34117
lfoot -5.91813 -4.07986
ltoes -23.0959
361
root 3.8189 17.1012 16.1858 -153.461 -2.21511 175.962
lowerback -31.0656 -2.8237 -8.62193
upperback -1.16667 -1.30443 -0.552269
thorax 15.0545 -1.45281 3.43756
lowerneck -0.29609 -2.06956 0.0199908
upperneck 4.18281 -2.92252 2.01601
head 1.36898 -1.46143 0.580116
rclavicle -1.39149e-015 -6.16232e-015
rhumerus -34.9366 -16.8435 -78.6715
rradius 33.0445
rwrist -5.86726
rhand -3.02078 -54.8131
rfingers 7.12502
rthumb 22.694 -83.4986
lclavicle -1.39149e-015 -6.16232e-015
lhumerus -30.561 5.72695 81.1613
lradius 21.6077
lwrist -4.7702
lhand -20.4327 -12.3551
lfingers 7.12502
lthumb 5.92203 17.5422
rfemur -21.6112 4.05092 18.6562
rtibia 5.62422
rfoot -18.5605 -4.21693
rtoes -15.0069
lfemur -22.8561 -7.74242 -23.9815
ltibia 6.31938
lfoot -5.98036 -3.99844
ltoes -23.4441
362
root 3.8176 17.1017 16.183 -153.491 -2.32057 175.946
lowerback -30.8739 -2.85943 -8.74046
upperback -1.27832 -1.35665 -0.460152
thorax 14.8474 -1.47987 3.58642
lowerneck -0.310379 -2.12974 0.0166689
upperneck 4.15884 -2.99202 1.84218
head 1.36128 -1.4974 0.525918
rclavicle -6.16232e-015 7.35503e-015
rhumerus -34.9529 -16.6764 -78.5951
rradius 33.0801
rwrist -5.92404
rhand -2.9923 -54.8748
rfingers 7.12502
rthumb 22.7214 -83.557
lclavicle -6.16232e-015 7.35503e-015
lhumerus -30.6393 5.89312 81.2987
lradius 21.4752
lwrist -4.9573
lhand -20.1458 -12.4147
lfingers 7.12502
lthumb 6.19906 17.4746
rfemur -21.5084 4.30341 18.6088
rtibia 5.57653
rfoot -18.5618 -4.55469
rtoes -14.5064
lfemur -22.8391 -7.56768 -24.0371
ltibia 6.37944
lfoot -5.96043 -4.29953
ltoes -23.387
363
root 3.81675 17.101 16.1818 -153.473 -2.39247 175.959
lowerback -29.8825 -2.79525 -8.80311
upperback -2.0212 -1.48862 -0.421131
thorax 13.5549 -1.51598 3.63973
lowerneck -0.173001 -2.12872 0.106036
upperneck 4.90876 -3.02085 1.55706
head 1.56906 -1.5222 0.420088
rclavicle -7.97623e-015 1.31198e-014
rhumerus -35.9548 -16.4103 -78.2926
rradius 33.0875
rwrist -5.9331
rhand -2.91521 -54.7508
rfingers 7.12502
rthumb 22.7953 -83.4239
lclavicle -7.97623e-015 1.31198e-014
lhumerus -31.8242 5.65247 81.3028
lradius 21.6466
lwrist -4.89439
lhand -20.2003 -12.2415
lfingers 7.12502
lthumb 6.14646 17.6493
rfemur -21.502 4.49752 18.5955
rtibia 5.60227
rfoot -18.5887 -4.77273
rtoes -13.9379
lfemur -22.9063 -7.20261 -24.0888
ltibia 6.45391
lfoot -5.90225 -4.73675
ltoes -22.8466
364
root 3.81358 17.0997 16.1793 -153.461 -2.38131 175.976
lowerback -29.8581 -2.90656 -9.29019
upperback -2.11684 -1.53114 -0.0705539
thorax 13.4549 -1.56671 4.26605
lowerneck -0.137739 -2.1464 -0.0417966
upperneck 4.85864 -3.01836 1.18542
head 1.54235 -1.52786 0.330432
rclavicle 9.93923e-015 3.55825e-014
rhumerus -35.9751 -16.2064 -77.7975
rradius 33.0516
rwrist -6.0253
rhand -2.92927 -54.6513
rfingers 7.12502
rthumb 22.7818 -83.326
lclavicle 9.93923e-015 3.55825e-014
lhumerus -31.8721 6.37265 81.6374
lradius 21.393
lwrist -5.60216
lhand -20.398 -12.3509
lfingers 7.12502
lthumb 5.95553 17.5454
rfemur -21.517 4.54221 18.5949
rtibia 5.6247
rfoot -18.6476 -4.78483
rtoes -14.3159
lfemur -22.9191 -7.03161 -24.1214
ltibia 6.44691
lfoot -5.88387 -4.89431
ltoes -22.4292
365
root 3.81007 17.1005 16.175 -153.525 -2.43421 175.944
lowerback -29.9165 -2.72358 -8.82798
upperback -2.09123 -1.38828 -0.556289
thorax 13.4702 -1.47236 3.54353
lowerneck -0.108124 -2.07219 0.277859
upperneck 4.74938 -2.94708 1.65825
head 1.50538 -1.48132 0.425367
rclavicle 7.55382e-015 2.78299e-015
rhumerus -36.0263 -16.7357 -78.4211
rradius 33.0702
rwrist -5.847
rhand -3.14572 -54.7375
rfingers 7.12502
rthumb 22.5741 -83.4377
lclavicle 7.55382e-015 2.78299e-015
lhumerus -31.7838 6.07398 81.0226
lradius 21.2751
lwrist -5.71493
lhand -20.4474 -12.3538
lfingers 7.12502
lthumb 5.90785 17.5439
rfemur -21.382 4.49043 18.5701
rtibia 5.53731
rfoot -18.6632 -4.81237
rtoes -14.7479
lfemur -22.8184 -7.09383 -24.162
ltibia 6.42599
lfoot -5.90547 -4.89143
ltoes -22.2399
366
root 3.80601 17.1023 16.1705 -153.591 -2.54296 175.932
lowerback -30.1082 -2.70568 -8.65236
upperback -1.93941 -1.36125 -0.699198
thorax 13.7229 -1.45312 3.29851
lowerneck -0.161507 -2.07998 0.276688
upperneck 4.58757 -2.96591 1.97785
head 1.46946 -1.48538 0.524453
rclavicle 9.0447e-015 -5.1684e-015
rhumerus -35.7526 -16.7831 -78.761
rradius 33.0605
rwrist -5.84974
rhand -3.2954 -54.8565
rfingers 7.12502
rthumb 22.4304 -83.574
lclavicle 9.0447e-015 -5.1684e-015
lhumerus -31.5944 5.7751 80.9419
lradius 21.3177
lwrist -5.50247
lhand -20.3666 -12.1923
lfingers 7.12502
lthumb 5.98592 17.7031
rfemur -21.211 4.45273 18.5706
rtibia 5.42745
rfoot -18.6507 -4.88397
rtoes -14.6485
lfemur -22.7324 -7.15321 -24.1711
ltibia 6.44729
lfoot -5.98474 -4.85221
ltoes -22.8066
